<svg class="logo-ht" xmlns="http://www.w3.org/2000/svg" viewBox="0 0 300 215.62">
    <title>Hervé Thermique</title>
    <defs>
    <linearGradient id="gradient-logo" data-name="gradient-logo" x1="82.86" y1="43.92" x2="221.43" y2="126.21" gradientUnits="userSpaceOnUse">
        <stop offset="0" stop-color="#999"></stop>
        <stop offset="0.04" stop-color="#929292"></stop>
        <stop offset="0.37" stop-color="#545454"></stop>
        <stop offset="0.66" stop-color="#262626"></stop>
        <stop offset="0.87" stop-color="#0a0a0a"></stop>
        <stop offset="1"></stop>
    </linearGradient>
    </defs>
    <g class="logo-text">
    <path d="M17.34,209.24H14l.93-6.48H6.78l-.91,6.48H2.49l2.24-15.91H8.11l-.89,6.3h8.09l.89-6.3h3.38Z"></path>
    <path d="M38.08,196H31.53L31,199.75h5.76l-.37,2.66H30.62L30,206.58h8.26l-.37,2.66H26.28l2.24-15.91h9.94Z"></path>
    <path d="M52.94,193.33c4,0,5.36,2.82,5.36,4.78a4,4,0,0,1-3.54,4.15h0a3.32,3.32,0,0,1,1.68,1.87l2.45,5.06H55.15L53.64,206c-1.35-2.87-1.73-3.22-3.38-3.22h-.72l-.89,6.44H45.26l2.22-15.91Zm-3.06,7h1.68c2.29,0,3.24-1.14,3.24-2.31s-1-2-2.66-2H50.49Z"></path>
    <path d="M71.13,209.45H69.48l-3.31-16.12h3.22l1.73,9.35h0l4.27-9.35H78.9Z"></path>
    <path d="M91.22,188.22H95l-4.13,4h-1.7Zm4.5,7.77H89.16l-.54,3.76h5.76L94,202.41H88.25l-.58,4.18h8.26l-.37,2.66H83.91l2.24-15.91h9.94Z"></path>
    <path d="M128.9,196h-5.18l-1.87,13.25h-3.38L120.34,196h-5l.37-2.66h13.6Z"></path>
    <path d="M149.43,209.24H146l.93-6.48h-8.12l-.91,6.48h-3.38l2.24-15.91h3.38l-.89,6.3h8.09l.89-6.3h3.38Z"></path>
    <path d="M170.16,196h-6.55l-.54,3.76h5.76l-.37,2.66H162.7l-.58,4.18h8.26l-.37,2.66H158.36l2.24-15.91h9.94Z"></path>
    <path d="M185,193.33c4,0,5.36,2.82,5.36,4.78a4,4,0,0,1-3.55,4.15h0a3.32,3.32,0,0,1,1.68,1.87l2.45,5.06h-3.73L185.72,206c-1.35-2.87-1.73-3.22-3.38-3.22h-.72l-.89,6.44h-3.38l2.21-15.91Zm-3.06,7h1.68c2.29,0,3.24-1.14,3.24-2.31s-1-2-2.66-2h-1.66Z"></path>
    <path d="M217.63,209.24h-3.27l-.49-10.75h0L208,209.24h-1.61l-2.8-11.06h0L200,209.24h-3.4l5.18-15.91h3.71l2.56,10,5.37-10H217Z"></path>
    <path d="M228.69,209.24h-3.38l2.24-15.91h3.38Z"></path>
    <path d="M250.14,214.09a13.8,13.8,0,0,1-7.56-5.27c-1.89-1-4.52-2.49-4.52-6.77,0-5.15,4-8.93,9.38-8.93,4.69,0,7.81,2.92,7.81,7.32a8.61,8.61,0,0,1-7.56,8.82c.93,1.17,3.24,2.38,4.64,1.87l.49.3Zm-2.94-18a5.72,5.72,0,0,0-5.64,5.8v.1a4.33,4.33,0,0,0,4.08,4.55,3.38,3.38,0,0,0,.45,0,5.74,5.74,0,0,0,5.67-5.81v0a4.42,4.42,0,0,0-4.2-4.63h-.36Z"></path>
    <path d="M277.41,203.25c-.72,5.18-4.31,6.2-7.32,6.2-5.46,0-7.53-3-7-7.07l1.31-9h3.38l-1.28,9c-.51,3.59,2.15,4.18,3.55,4.18a3.76,3.76,0,0,0,4-3.51v0l1.35-9.63h3.38Z"></path>
    <path d="M297.1,196h-6.55l-.54,3.76h5.76l-.37,2.66h-5.76l-.58,4.18h8.26l-.37,2.66H285.3l2.24-15.91h9.94Z"></path>
    <polygon points="0 189.36 0 187.61 300 187.61 300 189.36 0 189.36 0 189.36"></polygon>
    <polygon points="0 215.63 0 213.88 300 213.88 300 215.63 0 215.63 0 215.63"></polygon>
    </g>
    <path d="M41.88,112.94,116.07,0c34.8,21,70.7,19.26,70.7,19.26,45.09,0,74.64,39.62,74.64,39.62L187.65,171.16c-34.8-21-69.82-20.14-69.82-20.14C72.74,149.27,41.88,112.94,41.88,112.94Z" fill="url(#gradient-logo)"></path>
    <path d="M115.88,29.73h46.55l17.66,25.1L201,54.68c19.26,0,27.14,12.69,27.14,12.69,11.16,17.51.66,32.39.66,32.39l-25.63,39.87-57-.15,26.56-40.86c5.32-7.44,4.69-7,4.69-7-20.72.07-25.7-12.84-25.7-12.84Z" fill="#1d1d1b"></path>
    <path d="M119.36,25.39H165.9l17.66,25.1,20.94-.15c19.26,0,27.14,12.69,27.14,12.69,11.16,17.51.66,32.39.66,32.39l-29.11,44.21H157l30.42-46.4c5.32-7.44-2.85-7.22-2.85-7.22-20.72.07-28.67-11.82-28.67-11.82Z" fill="#fff"></path>
    <path d="M173.13,96.85,145.48,139.5l-55.57.15,33-48.74s-10.09-.15-13.88-1c0,0-16.63-1.6-24.81-19.55a45,45,0,0,1-3.6-13.76h46.69S146,83,149.49,86C149.49,86,159.74,96.63,173.13,96.85Z" fill="#1d1d1b"></path>
    <path d="M177.47,91.63,146.22,139.5H99.82l35.62-53.11s-18.39,0-22.18-.88c0,0-17.55-.25-25.68-20.43a49.41,49.41,0,0,1-2.65-13.72h46.69s18.71,26.46,22.2,29.48C153.83,80.84,164.08,91.41,177.47,91.63Z" fill="#ed7203"></path>
</svg>