<svg version="1.1" id="logoSDI00_xA0_Image" xmlns="http://www.w3.org/2000/svg" xmlns:xlink="http://www.w3.org/1999/xlink" x="0px" y="0px" viewBox="0 0 850 245.5" style="enable-background:new 0 0 850 245.5;" xml:space="preserve">
<style type="text/css">
	.st0{fill:#465062;}
</style>
<path id="SD_x5F_I" class="st0" d="M788.3,0v245.5H850V0H788.3z M635.4,0.2H76.6C34.3,0.2,0,34.5,0,76.7c0,42.3,34.3,76.6,76.6,76.6  h216.2c8.4,0,15.2,6.8,15.2,15.2c0,8.4-6.8,15.2-15.2,15.2H0.3v61.7h292.3c42.3,0,76.5-34.3,76.5-76.5c0-42.3-34.3-76.6-76.5-76.6  H76.5c-8.4,0-15.2-6.8-15.2-15.2c0-8.4,6.8-15.2,15.2-15.2h559.4c33.6,0,60.9,27.3,60.9,60.9c0,33.6-27.2,60.9-60.9,60.9H398.6v61.7  h236.8c67.6,0,122.5-54.9,122.5-122.5C757.9,55.1,703,0.2,635.4,0.2z"/>
</svg>