<?xml version="1.0" standalone="no"?>
<!DOCTYPE svg PUBLIC "-//W3C//DTD SVG 20010904//EN"
 "http://www.w3.org/TR/2001/REC-SVG-20010904/DTD/svg10.dtd">
<svg version="1.0" xmlns="http://www.w3.org/2000/svg"
 width="1911.000000pt" height="1911.000000pt" viewBox="0 0 1911.000000 1911.000000"
 preserveAspectRatio="xMidYMid meet">
<metadata>
Created by potrace 1.15, written by Peter Selinger 2001-2017
</metadata>
<g transform="translate(0.000000,1911.000000) scale(0.100000,-0.100000)"
fill="#000000" stroke="none">
<path d="M9125 19100 c-1646 -81 -3181 -552 -4571 -1403 -257 -158 -775 -516
-774 -535 1 -4 11 -19 23 -34 l23 -28 144 106 c1171 859 2559 1446 3991 1688
1145 193 2327 177 3454 -49 827 -166 1580 -423 2340 -800 509 -252 983 -540
1414 -859 145 -108 138 -106 171 -46 15 28 -493 383 -885 617 -1316 786 -2746
1230 -4295 1333 -218 15 -821 20 -1035 10z"/>
<path d="M9175 18883 c-152 -6 -511 -34 -685 -53 -1495 -171 -2892 -684 -4140
-1521 -295 -197 -451 -315 -444 -334 9 -23 20 -19 82 28 194 149 523 370 773
520 1860 1116 4030 1544 6192 1221 661 -98 1319 -274 1965 -523 747 -288 1520
-713 2151 -1183 101 -76 136 -97 142 -86 5 7 7 17 6 22 -2 5 -70 59 -153 119
-1709 1246 -3754 1868 -5889 1790z"/>
<path d="M9135 18184 c-27 -2 -117 -8 -200 -14 -1404 -98 -2781 -556 -3995
-1328 -284 -181 -635 -435 -627 -456 3 -6 73 -112 157 -234 l152 -223 32 25
c17 14 114 85 215 157 1081 776 2348 1273 3666 1438 567 71 1253 81 1815 25
1178 -116 2334 -498 3345 -1107 194 -117 500 -322 662 -444 71 -53 134 -96
141 -97 7 -1 20 12 30 27 17 28 16 29 -8 49 -14 11 -34 26 -44 34 -18 12 -12
22 98 169 64 86 119 161 122 168 5 15 -487 367 -513 367 -4 0 -57 -77 -117
-170 -104 -164 -110 -170 -130 -157 -11 8 -49 32 -83 53 -35 21 -63 41 -63 44
0 3 47 82 105 175 95 155 103 171 87 183 -26 20 -294 172 -424 241 l-117 62
-32 -63 c-46 -92 -151 -292 -155 -297 -7 -7 -174 78 -174 89 0 5 34 81 76 167
42 87 80 168 84 179 8 20 -4 27 -163 99 -133 61 -403 175 -412 175 -1 0 -35
-84 -75 -187 -41 -104 -74 -189 -75 -190 -4 -7 -178 62 -181 72 -3 6 25 92 61
190 36 98 65 182 65 186 0 13 -595 207 -605 197 -2 -2 -27 -89 -56 -193 -29
-105 -54 -192 -55 -194 -4 -5 -177 39 -186 47 -4 4 15 95 42 202 27 107 48
195 47 196 -5 5 -329 76 -447 99 -74 14 -145 28 -157 31 -13 2 -23 0 -23 -6 0
-11 -57 -341 -65 -375 -4 -21 -5 -21 -102 -5 l-98 16 3 29 c2 17 15 106 28
199 14 92 22 171 19 174 -9 9 -237 39 -437 57 -133 13 -182 14 -187 6 -4 -6
-13 -98 -20 -204 -7 -105 -14 -192 -14 -193 -1 0 -46 1 -99 4 l-98 4 0 58 c0
31 3 126 7 210 l6 153 136 -7 c176 -9 480 -40 700 -72 1100 -158 2177 -541
3131 -1112 181 -108 532 -343 698 -466 79 -58 147 -107 153 -109 5 -1 18 12
29 29 l21 32 -128 94 c-757 559 -1538 968 -2400 1257 -651 219 -1279 347
-2038 417 -150 14 -1001 28 -1130 18z m507 -81 l-314 -3 4 -204 3 -204 -95 -4
c-52 -2 -98 -3 -101 -1 -4 1 -10 76 -13 165 -4 90 -9 180 -12 201 l-6 37 -56
2 c-155 5 182 14 523 14 358 -1 362 -1 67 -3z m-1129 -60 c-40 -5 -39 8 -9
-228 13 -99 23 -181 22 -182 -2 -3 -141 -23 -180 -26 -17 -2 -22 15 -47 178
-40 257 -49 229 79 247 59 8 121 15 137 15 30 0 29 0 -2 -4z m-831 -350 c25
-109 44 -200 42 -201 -3 -5 -188 -52 -190 -49 -7 8 -102 392 -98 397 6 6 162
48 185 49 13 1 25 -40 61 -196z m-803 -223 c35 -104 62 -193 61 -197 -1 -4
-43 -22 -92 -39 l-90 -31 -9 26 c-69 180 -131 353 -127 356 4 4 175 71 188 74
3 1 34 -84 69 -189z m-774 -302 c42 -95 80 -179 82 -185 3 -8 -27 -28 -82 -53
-48 -22 -89 -40 -92 -40 -5 0 -173 348 -173 359 0 7 165 90 181 91 3 0 41 -78
84 -172z m-729 -399 c57 -99 90 -167 84 -173 -5 -5 -42 -28 -82 -52 -56 -34
-75 -41 -84 -31 -27 29 -206 331 -198 334 5 2 45 26 89 53 44 27 84 45 88 41
5 -5 51 -82 103 -172z m-697 -450 c107 -151 112 -161 95 -174 -11 -7 -46 -34
-79 -58 -33 -25 -62 -44 -66 -42 -5 4 -179 231 -227 297 -11 15 -3 24 70 78
45 33 85 60 88 59 3 0 56 -72 119 -160z"/>
<path d="M2735 17462 c-171 -114 -454 -301 -630 -417 -325 -214 -511 -346
-623 -445 -68 -59 -142 -148 -142 -170 0 -97 978 -1316 1676 -2090 184 -204
435 -458 490 -493 l41 -27 55 24 c82 37 212 74 350 101 125 25 412 54 423 43
4 -3 -33 -53 -80 -110 -473 -565 -868 -1249 -1139 -1971 -461 -1228 -550
-2625 -250 -3917 253 -1088 770 -2101 1499 -2935 123 -141 170 -191 327 -350
l138 -140 -246 -270 c-305 -334 -411 -450 -494 -540 -241 -261 -786 -870
-1060 -1185 -100 -115 -180 -221 -180 -238 0 -32 39 -81 81 -103 33 -16 55
-20 95 -17 82 7 132 41 235 158 163 186 752 821 938 1011 9 9 104 108 211 220
192 201 382 398 591 613 l106 109 84 -70 c552 -461 1247 -858 1974 -1128 94
-34 186 -67 205 -73 19 -6 96 -29 170 -52 1081 -330 2309 -379 3425 -134 1045
229 1991 683 2827 1354 l146 118 27 -30 c15 -17 102 -107 193 -202 392 -405
525 -543 892 -931 52 -55 136 -143 185 -195 194 -205 417 -449 587 -640 91
-104 148 -135 234 -128 86 7 170 89 144 138 -26 49 -328 402 -616 720 -22 25
-83 92 -135 150 -278 309 -474 526 -479 530 -4 3 -55 59 -115 125 -116 129
-213 234 -479 523 l-169 183 159 162 c250 255 403 430 588 676 725 961 1178
2077 1325 3261 35 283 42 385 48 730 6 358 -3 577 -38 885 -144 1292 -650
2504 -1468 3518 -53 66 -107 133 -121 150 l-24 30 120 -6 c243 -13 472 -58
662 -130 l93 -34 40 27 c276 185 1967 2186 2153 2548 17 33 17 34 -10 74 -84
120 -319 299 -849 643 -126 83 -367 241 -534 352 -167 111 -308 200 -312 197
-14 -9 -264 -324 -395 -499 -509 -678 -1096 -1606 -1548 -2448 -42 -78 -50
-87 -64 -75 -9 7 -62 52 -117 99 -959 823 -2211 1380 -3475 1548 -535 71
-1139 80 -1655 25 -1350 -145 -2615 -683 -3653 -1554 -74 -61 -135 -110 -137
-108 -1 2 -44 80 -95 173 -467 861 -1065 1792 -1579 2460 -129 168 -304 385
-311 384 -3 0 -145 -93 -315 -207z m7230 -1162 c1408 -90 2717 -593 3810
-1465 77 -61 174 -141 216 -178 l75 -67 -111 -223 c-61 -122 -124 -253 -140
-292 -35 -84 -53 -108 -263 -337 -90 -99 -162 -180 -160 -182 1 -1 55 -47 119
-103 l115 -101 225 237 c249 261 268 276 439 330 89 29 215 54 322 64 53 5 59
0 180 -148 841 -1034 1352 -2241 1497 -3540 66 -589 54 -1220 -35 -1795 -198
-1284 -751 -2466 -1614 -3450 -95 -109 -409 -430 -420 -430 -4 0 -22 17 -41
37 -265 291 -343 372 -353 366 -6 -4 -42 -32 -81 -63 -38 -31 -102 -81 -141
-112 l-72 -55 82 -84 c45 -46 138 -142 206 -212 l125 -129 -35 -30 c-803 -686
-1864 -1208 -2914 -1432 -513 -110 -888 -149 -1436 -150 -559 -1 -966 42
-1475 155 -1023 226 -1939 666 -2777 1333 -70 55 -127 104 -128 108 0 4 83 92
185 196 l185 189 -146 117 c-80 64 -149 116 -154 116 -6 0 -224 -232 -320
-342 l-29 -33 -131 130 c-390 387 -764 866 -1047 1340 -863 1447 -1153 3172
-813 4837 226 1101 726 2129 1463 3006 l70 83 66 -6 c179 -18 334 -56 466
-115 71 -32 79 -39 349 -323 93 -97 172 -177 175 -177 7 0 225 191 229 200 1
4 -45 58 -103 121 -212 228 -269 300 -300 374 -15 39 -82 177 -147 307 l-119
237 38 34 c75 68 286 238 396 320 1077 803 2344 1264 3687 1340 140 8 641 6
785 -3z"/>
<path d="M9230 14580 c-135 -4 -284 -8 -332 -9 -79 -1 -88 -3 -88 -20 0 -16 9
-19 70 -23 59 -3 74 -8 96 -30 24 -24 27 -35 35 -144 4 -66 11 -326 15 -579 5
-357 4 -466 -5 -484 -17 -30 -85 -61 -138 -61 -37 0 -43 -3 -43 -21 0 -22 1
-22 148 -16 81 4 317 10 524 13 207 4 381 10 386 13 9 5 92 247 108 314 5 22
3 27 -12 27 -12 0 -29 -19 -48 -53 -67 -119 -124 -177 -206 -206 -22 -8 -114
-15 -245 -18 -200 -5 -211 -5 -235 15 l-25 20 -9 276 c-4 152 -5 280 -1 284 9
9 328 15 384 7 65 -10 106 -54 122 -133 10 -48 17 -62 31 -62 16 0 18 10 18
88 0 49 -3 157 -7 240 -5 134 -8 152 -23 152 -13 0 -19 -11 -22 -43 -8 -72
-36 -117 -85 -139 -35 -16 -77 -20 -231 -25 l-189 -6 -6 93 c-4 51 -7 173 -7
270 l0 177 46 7 c78 10 440 7 471 -5 15 -5 40 -22 55 -36 28 -27 68 -117 68
-154 0 -15 6 -20 23 -17 12 2 21 6 21 11 -1 4 -5 62 -8 130 -4 67 -9 130 -12
140 -5 15 -22 17 -202 15 -108 -1 -307 -5 -442 -8z"/>
<path d="M10340 14550 c0 -14 7 -20 22 -20 37 0 103 -38 122 -71 14 -24 17
-42 12 -80 -12 -91 -235 -1013 -255 -1056 -26 -55 -68 -77 -130 -70 -25 3 -54
9 -63 12 -14 5 -18 2 -18 -14 0 -24 -19 -18 318 -97 168 -39 247 -53 254 -46
16 16 2 29 -42 36 -23 4 -54 19 -75 37 -32 28 -35 36 -35 85 0 43 83 433 104
491 4 8 21 7 68 -4 35 -9 66 -19 70 -22 5 -4 75 -168 157 -365 82 -197 152
-360 155 -363 6 -6 323 -83 342 -83 7 0 14 7 17 15 5 10 -12 23 -58 45 -118
56 -154 114 -314 505 -64 156 -86 222 -78 227 7 4 33 8 58 8 103 0 231 63 282
138 45 65 62 121 62 202 -1 91 -32 164 -97 230 -55 55 -105 83 -213 119 -78
26 -627 161 -655 161 -6 0 -10 -9 -10 -20z m472 -171 c125 -19 195 -62 246
-148 24 -41 27 -56 27 -136 0 -73 -4 -98 -22 -131 -56 -105 -134 -155 -253
-162 -72 -4 -202 11 -227 26 -8 5 8 89 55 285 57 240 68 277 85 277 10 0 50
-5 89 -11z"/>
<path d="M8255 14477 c-110 -33 -201 -61 -203 -62 -1 -1 0 -10 4 -19 5 -12 20
-16 64 -16 70 0 106 -24 116 -76 6 -35 -70 -909 -84 -969 -7 -28 -14 -22 -217
219 -116 137 -245 290 -288 340 -105 123 -157 201 -157 238 0 34 40 77 90 98
16 7 30 15 30 19 -1 31 -26 27 -280 -51 -146 -44 -266 -81 -268 -83 -1 -1 0
-10 4 -19 5 -12 14 -15 45 -10 22 4 59 1 85 -6 40 -12 59 -27 135 -114 90
-104 527 -619 724 -853 103 -124 139 -152 150 -120 2 6 32 298 65 647 33 349
65 658 72 685 16 75 44 122 88 151 22 15 40 29 40 33 -1 29 -26 25 -215 -32z"/>
<path d="M12089 13976 c-140 -38 -244 -157 -256 -296 -11 -119 28 -213 198
-477 131 -202 153 -250 154 -328 0 -80 -32 -138 -99 -180 -43 -26 -59 -30
-120 -30 -61 0 -82 5 -139 33 -87 43 -155 110 -197 195 -29 59 -33 78 -33 140
1 40 8 100 17 135 17 63 15 82 -7 82 -7 0 -60 -94 -119 -209 -91 -175 -105
-210 -91 -215 9 -4 25 1 37 12 50 45 57 42 188 -84 158 -151 313 -213 465
-185 131 24 221 89 275 199 30 61 33 75 33 158 0 86 -2 94 -42 175 -23 46 -86
152 -141 234 -167 253 -203 336 -182 417 17 61 72 112 144 133 55 16 63 16
121 1 117 -32 219 -139 251 -264 17 -69 14 -125 -13 -225 -14 -50 -14 -60 -2
-68 8 -4 17 -5 20 -1 4 4 53 98 110 209 83 161 101 204 92 214 -10 10 -18 8
-37 -10 -45 -42 -71 -32 -155 58 -42 44 -100 96 -129 116 -102 67 -235 90
-343 61z"/>
<path d="M6558 13816 c-142 -77 -258 -143 -258 -146 0 -3 4 -11 9 -18 7 -11
17 -9 52 9 24 12 63 23 86 23 35 1 48 -5 72 -29 26 -27 410 -706 512 -906 59
-115 51 -166 -33 -220 -49 -31 -56 -43 -38 -54 10 -6 141 62 400 208 121 67
128 73 114 87 -7 7 -24 4 -55 -9 -24 -12 -64 -21 -88 -21 -61 0 -85 29 -210
256 -58 104 -161 290 -229 414 -150 271 -182 336 -182 374 0 41 33 88 80 115
22 12 40 25 40 29 -1 33 -33 19 -272 -112z"/>
<path d="M5895 13431 c-67 -58 -148 -129 -180 -158 -47 -40 -57 -54 -48 -64 9
-9 18 -8 39 7 65 46 81 54 112 54 19 0 47 -9 63 -21 25 -17 223 -241 538 -607
61 -70 63 -74 35 -68 -16 3 -312 55 -658 116 l-629 109 -37 -32 c-20 -18 -82
-72 -138 -120 -56 -48 -102 -92 -102 -97 0 -20 24 -21 50 -2 55 41 102 55 185
53 50 0 83 -5 91 -13 18 -20 595 -688 636 -737 80 -94 84 -144 16 -217 -29
-31 -37 -47 -31 -59 7 -12 28 1 109 72 56 49 137 120 182 158 67 58 78 72 68
83 -11 12 -21 8 -61 -22 -35 -27 -56 -36 -86 -36 -57 0 -53 -4 -400 395 -261
300 -291 336 -288 339 2 2 38 -2 79 -10 41 -7 356 -61 698 -120 530 -91 626
-105 637 -93 12 12 0 30 -78 120 -51 58 -162 186 -247 284 -202 233 -299 345
-369 424 -104 119 -131 160 -131 201 0 38 26 81 75 122 18 15 18 18 5 31 -13
13 -30 2 -135 -92z"/>
<path d="M13101 13456 c-10 -11 -5 -20 23 -41 45 -34 79 -103 70 -141 -8 -29
-34 -66 -398 -539 -130 -170 -258 -330 -284 -354 -43 -40 -49 -43 -90 -38 -27
3 -60 17 -87 36 -39 28 -45 30 -53 15 -8 -14 20 -40 167 -153 297 -230 291
-226 302 -210 6 10 0 22 -24 44 -73 68 -85 106 -54 167 18 35 425 570 620 814
82 103 139 117 225 54 35 -25 42 -27 53 -14 6 8 10 16 8 18 -2 1 -85 65 -184
141 -99 76 -198 153 -220 170 -56 44 -61 47 -74 31z"/>
<path d="M13721 12804 c-67 -53 -121 -100 -121 -105 0 -21 26 -19 71 5 26 15
71 29 98 33 75 9 123 -19 225 -134 47 -52 86 -99 86 -102 0 -4 -158 -146 -352
-317 -193 -170 -356 -313 -362 -319 -180 -164 -226 -177 -311 -90 -36 38 -45
42 -55 30 -10 -12 2 -31 70 -107 46 -51 133 -150 194 -220 95 -110 112 -126
124 -114 12 12 10 20 -17 53 -44 55 -55 97 -34 140 9 21 79 90 171 171 86 75
199 175 252 222 52 47 127 112 165 146 39 34 120 105 180 158 l110 97 63 -68
c126 -136 157 -203 134 -290 -7 -27 -27 -65 -43 -86 -27 -34 -33 -67 -12 -67
4 0 60 49 122 108 l115 108 -184 210 c-302 343 -561 634 -565 634 -1 0 -57
-43 -124 -96z"/>
<path d="M4669 12267 c-15 -23 -72 -115 -129 -205 -82 -129 -100 -165 -91
-175 10 -9 18 -6 35 18 65 90 105 106 179 72 65 -30 577 -352 674 -424 123
-92 163 -156 171 -269 13 -206 -124 -416 -297 -456 -112 -25 -210 18 -597 262
-365 230 -390 249 -405 300 -11 37 -10 45 18 100 26 48 29 61 18 70 -16 13
-12 18 -210 -294 -108 -172 -123 -201 -109 -209 12 -7 19 -5 26 6 20 37 64 81
94 93 57 24 63 21 440 -217 334 -211 432 -263 527 -279 162 -28 309 40 431
199 140 181 190 364 143 522 -40 136 -118 205 -507 451 -344 218 -374 240
-390 278 -17 40 -8 111 19 149 21 29 21 30 3 40 -15 8 -22 3 -43 -32z"/>
<path d="M6837 12175 l-129 -106 54 -57 c29 -31 107 -115 173 -187 66 -71 156
-168 200 -215 45 -47 108 -114 140 -148 l60 -64 34 39 c86 98 181 213 183 221
2 5 -91 107 -207 227 -115 119 -248 258 -295 307 l-85 90 -128 -107z"/>
<path d="M12137 12250 c-8 -11 -106 -116 -218 -233 -112 -116 -232 -241 -266
-277 l-62 -65 107 -127 c59 -69 111 -125 117 -125 10 2 77 72 325 337 193 207
244 263 258 282 11 14 -2 29 -100 113 -138 118 -143 121 -161 95z"/>
<path d="M14778 11749 c-16 -9 -15 -14 7 -62 34 -72 32 -106 -7 -144 -36 -35
-102 -70 -850 -457 -94 -48 -159 -76 -180 -76 -43 0 -93 36 -120 88 -25 45
-26 46 -47 33 -11 -7 0 -34 51 -132 36 -68 103 -196 148 -284 167 -321 272
-520 280 -528 7 -8 348 38 358 48 3 3 -1 11 -8 20 -8 10 -30 15 -65 15 -133 0
-244 44 -298 118 -19 26 -71 117 -116 203 -86 166 -97 206 -61 237 11 9 125
71 253 138 203 106 233 119 243 105 6 -9 47 -86 90 -171 70 -136 79 -161 79
-208 0 -53 -1 -55 -57 -108 -39 -36 -56 -58 -52 -69 5 -13 44 4 213 91 113 58
209 109 213 113 4 3 4 12 -1 19 -6 10 -20 10 -69 -4 -78 -22 -129 -10 -166 39
-25 33 -170 302 -180 335 -5 14 21 31 127 86 72 38 179 93 235 124 57 30 107
50 112 46 19 -21 193 -365 213 -420 20 -59 20 -62 3 -107 -10 -27 -37 -64 -67
-92 -40 -37 -49 -51 -42 -66 7 -16 21 -10 128 53 66 38 124 74 129 79 6 5 -1
27 -16 56 -14 27 -60 116 -103 198 -43 83 -101 195 -130 250 -29 55 -92 177
-140 270 -49 94 -89 171 -89 172 -1 1 -9 -3 -18 -8z"/>
<path d="M7840 10855 l0 -485 473 2 472 3 3 483 2 482 -475 0 -475 0 0 -485z"/>
<path d="M10322 10858 l3 -483 473 -3 472 -2 0 485 0 485 -475 0 -475 0 2
-482z"/>
<path d="M7271 9658 c-333 -785 -336 -793 -431 -818 -24 -6 -40 -17 -40 -25 0
-13 33 -15 215 -15 170 0 215 3 215 13 0 8 -24 18 -60 25 -76 16 -105 48 -95
107 3 22 32 101 64 175 l58 135 269 3 269 2 58 -145 c68 -170 74 -216 35 -250
-15 -13 -45 -26 -67 -30 -25 -4 -41 -12 -41 -21 0 -12 44 -14 270 -14 216 0
270 3 270 13 0 7 -22 19 -50 26 -100 26 -116 50 -279 441 -363 870 -387 925
-407 928 -16 2 -52 -76 -253 -550z m309 -28 c56 -135 106 -255 111 -267 l9
-23 -234 0 -234 0 117 274 c64 151 119 271 122 268 4 -4 53 -117 109 -252z"/>
<path d="M12740 10194 c-74 -20 -126 -52 -184 -113 -72 -78 -91 -128 -91 -236
1 -78 4 -97 28 -143 56 -106 122 -160 406 -323 190 -110 227 -138 265 -209 25
-45 28 -60 24 -116 -5 -80 -41 -134 -119 -178 -50 -29 -61 -31 -154 -31 -91 0
-106 3 -166 31 -137 65 -191 143 -233 337 -4 18 -13 27 -26 27 -19 0 -20 -7
-20 -235 0 -221 1 -235 18 -235 11 0 24 13 33 32 23 52 38 55 126 29 162 -49
219 -61 284 -61 192 0 340 84 410 233 30 64 31 73 27 160 -3 74 -9 102 -30
143 -38 73 -129 152 -265 229 -354 203 -421 253 -443 334 -23 88 18 175 107
228 43 25 57 28 133 28 65 -1 96 -6 133 -22 125 -57 189 -135 223 -271 15 -60
27 -88 38 -90 14 -3 16 21 16 232 0 224 -1 236 -19 236 -13 0 -20 -9 -25 -30
-9 -50 -46 -59 -120 -31 -158 61 -268 74 -376 45z"/>
<path d="M5240 10160 c0 -15 7 -20 29 -20 58 0 133 -33 187 -83 l54 -49 0
-542 c0 -409 -3 -547 -13 -565 -20 -41 -62 -64 -122 -69 -38 -3 -55 -9 -55
-18 0 -12 43 -14 240 -14 207 0 240 2 240 15 0 11 -12 15 -47 15 -27 0 -64 8
-83 18 -65 32 -65 26 -68 555 -2 262 0 477 3 477 4 0 17 -12 29 -27 11 -15
183 -226 381 -468 198 -243 389 -478 425 -523 46 -57 72 -81 87 -82 l22 0 3
649 c3 633 3 649 23 671 27 31 76 50 125 50 29 0 40 4 40 15 0 13 -33 15 -240
15 -197 0 -240 -2 -240 -14 0 -10 18 -15 60 -18 77 -5 111 -30 127 -89 15 -57
18 -913 3 -904 -6 3 -195 235 -421 516 l-412 509 -188 0 c-182 0 -189 -1 -189
-20z"/>
<path d="M8250 10160 c0 -15 7 -20 28 -20 62 0 130 -30 186 -81 l56 -51 0
-542 c0 -409 -3 -547 -13 -565 -20 -41 -62 -64 -122 -69 -38 -3 -55 -9 -55
-18 0 -12 43 -14 240 -14 207 0 240 2 240 15 0 11 -12 15 -47 15 -27 0 -64 8
-83 18 -65 32 -65 32 -68 487 -2 226 -2 441 0 480 l3 70 180 -220 c254 -310
535 -654 635 -778 61 -76 91 -106 108 -106 l22 -1 0 633 c0 582 1 635 18 667
21 43 72 70 130 70 31 0 42 4 42 15 0 13 -33 15 -240 15 -197 0 -240 -2 -240
-14 0 -10 18 -15 60 -18 77 -5 111 -30 127 -89 8 -30 12 -181 12 -479 l1 -435
-24 25 c-14 14 -106 126 -206 250 -99 124 -278 345 -396 493 l-216 267 -189 0
c-182 0 -189 -1 -189 -20z"/>
<path d="M9866 10098 c-13 -186 -12 -232 5 -236 12 -2 19 11 28 51 16 71 55
130 105 159 37 21 56 23 184 26 l143 4 -3 -594 c-3 -556 -4 -596 -21 -622 -23
-35 -73 -56 -132 -56 -33 0 -45 -4 -45 -15 0 -13 39 -15 295 -15 256 0 295 2
295 15 0 11 -12 15 -45 15 -63 0 -110 22 -132 62 -17 31 -18 75 -21 621 l-3
587 124 0 c155 0 211 -15 260 -69 32 -35 67 -118 67 -158 0 -7 9 -13 20 -13
19 0 19 5 14 128 -3 70 -7 142 -10 160 l-5 32 -559 0 -558 0 -6 -82z"/>
<path d="M11100 10165 c0 -11 12 -15 45 -15 66 0 120 -25 137 -63 10 -26 13
-148 13 -604 0 -561 0 -572 -21 -599 -24 -33 -73 -52 -131 -53 -31 -1 -43 -5
-43 -16 0 -13 66 -15 533 -15 l532 0 55 162 c68 202 65 188 42 188 -13 0 -31
-21 -58 -67 -47 -81 -107 -144 -165 -174 -41 -22 -58 -24 -257 -27 -220 -4
-262 1 -278 36 -4 10 -9 140 -12 290 l-4 273 203 -3 c173 -3 209 -6 237 -21
42 -23 69 -67 77 -128 6 -39 11 -49 26 -49 18 0 19 11 19 240 0 233 -1 240
-20 240 -16 0 -20 -7 -20 -33 0 -43 -38 -115 -73 -141 -26 -19 -45 -21 -238
-24 l-209 -4 0 272 0 271 253 -3 c232 -3 255 -5 291 -24 43 -22 79 -79 96
-151 8 -32 16 -43 30 -43 19 0 19 6 14 128 -3 70 -7 137 -10 150 l-4 22 -530
0 c-464 0 -530 -2 -530 -15z"/>
<path d="M7875 8548 c16 -103 59 -279 92 -372 205 -591 646 -915 1330 -975
409 -36 811 25 1110 169 356 171 590 433 732 816 28 76 82 285 96 367 l6 37
-479 0 -478 0 -18 -57 c-64 -202 -199 -330 -397 -378 -168 -40 -471 -38 -627
5 -209 58 -331 182 -406 413 -5 16 -37 17 -487 17 l-481 0 7 -42z"/>
<path d="M11264 7503 c-66 -81 -125 -155 -132 -165 -11 -15 -1 -32 91 -141
161 -191 251 -328 271 -412 9 -37 21 -45 71 -45 39 0 47 -7 310 -270 148 -148
274 -270 279 -270 10 0 281 193 333 238 l32 27 -102 110 c-173 188 -452 496
-460 511 -10 18 7 50 52 98 33 36 34 38 11 31 -14 -4 -67 -9 -117 -12 l-93 -5
-32 33 c-18 19 -73 79 -122 134 -160 179 -259 285 -267 285 -4 0 -60 -66 -125
-147z"/>
<path d="M7608 7507 c-63 -67 -147 -160 -188 -207 -41 -47 -83 -89 -94 -93
-24 -10 -182 -4 -211 8 -14 6 -8 -4 17 -33 21 -23 40 -53 44 -67 8 -32 22 -15
-357 -429 -85 -93 -167 -185 -183 -204 l-30 -35 30 -24 c53 -45 273 -208 302
-225 l27 -16 282 279 c274 273 282 279 321 279 55 0 72 8 72 36 0 59 132 262
288 440 l70 81 -128 161 c-71 88 -133 163 -138 166 -6 3 -61 -49 -124 -117z"/>
<path d="M12680 6210 c-113 -60 -205 -114 -204 -120 1 -5 2 -14 3 -20 0 -5 25
2 54 15 56 27 97 31 127 15 31 -17 68 -79 240 -400 89 -168 176 -329 192 -359
31 -58 31 -69 0 -52 -11 6 -224 96 -474 200 -249 104 -513 214 -587 245 l-133
56 -149 -77 c-176 -92 -183 -97 -175 -118 5 -14 9 -14 38 2 24 13 56 18 118
18 105 0 152 -21 185 -80 23 -43 218 -408 372 -698 53 -98 97 -195 100 -216 7
-52 -17 -94 -73 -127 -30 -18 -43 -31 -40 -41 3 -8 6 -16 6 -19 0 -2 42 19 93
46 50 28 145 78 209 113 65 34 118 67 118 74 0 19 -19 26 -35 13 -8 -6 -35
-18 -60 -26 -40 -12 -52 -12 -81 1 -40 17 -68 59 -186 280 -47 88 -136 254
-197 369 -62 114 -110 210 -108 212 2 3 298 -118 657 -267 489 -203 657 -269
671 -263 17 8 12 21 -59 154 -43 80 -98 183 -124 230 -309 579 -378 711 -389
748 -17 59 4 102 71 144 40 24 48 34 39 44 -6 8 -12 14 -13 14 0 0 -93 -50
-206 -110z"/>
<path d="M6450 5919 c-676 -553 -826 -674 -882 -710 -60 -39 -66 -40 -132 -37
-46 2 -70 -1 -73 -9 -4 -11 32 -32 270 -157 87 -46 109 -54 113 -41 4 10 -11
32 -45 63 -63 59 -66 85 -16 141 31 35 200 176 232 195 13 7 483 -229 483
-242 -3 -77 -33 -309 -44 -336 -24 -58 -71 -67 -158 -31 -11 4 -17 1 -20 -12
-4 -19 5 -25 319 -188 114 -60 155 -77 164 -68 8 8 0 22 -34 55 -49 47 -67 92
-67 168 0 24 25 334 55 689 31 355 53 651 51 658 -3 7 -11 13 -18 13 -7 0 -96
-68 -198 -151z m6 -166 c-3 -27 -15 -158 -27 -293 -11 -134 -21 -245 -22 -246
-5 -5 -402 205 -404 213 -2 5 47 50 109 100 62 51 163 132 223 182 61 50 114
90 118 91 5 0 6 -21 3 -47z"/>
<path d="M7007 5803 c-11 -10 -8 -33 3 -33 6 0 28 -12 50 -26 75 -50 72 -34
142 -802 57 -626 65 -695 81 -704 10 -5 20 -8 21 -6 22 32 849 993 874 1016
54 50 104 72 161 72 33 0 51 5 54 14 5 11 14 12 47 5 92 -21 130 -57 130 -124
0 -46 -145 -988 -161 -1050 -26 -96 -61 -122 -155 -112 -43 4 -56 2 -61 -9 -3
-8 -4 -16 -2 -18 2 -2 123 -23 269 -45 146 -23 277 -44 293 -47 22 -5 27 -2
27 14 0 15 -12 21 -55 31 -34 8 -66 23 -85 41 -26 25 -30 35 -30 83 0 30 11
126 25 213 13 88 44 292 70 454 25 162 52 327 60 367 24 108 67 141 169 127
34 -5 44 -3 49 10 4 10 1 19 -6 21 -6 2 -137 23 -290 46 -219 33 -281 39 -287
30 -6 -10 -55 3 -206 52 -176 58 -200 64 -205 49 -5 -12 4 -24 31 -42 44 -28
70 -67 70 -103 0 -26 -35 -78 -110 -167 -411 -485 -540 -633 -545 -628 -5 5
-85 906 -85 956 0 55 23 108 50 117 12 4 47 5 78 3 46 -2 57 0 60 13 2 14 -47
34 -255 103 -277 92 -266 89 -276 79z"/>
<path d="M10940 5484 c-121 -36 -202 -84 -291 -174 -221 -223 -259 -544 -103
-863 135 -275 429 -422 723 -363 226 46 399 188 489 403 117 277 31 651 -194
852 -70 62 -209 135 -295 156 -99 23 -228 19 -329 -11z m292 -92 c163 -80 273
-262 349 -577 29 -116 31 -284 6 -367 -55 -181 -231 -307 -415 -296 -212 12
-385 215 -475 557 -26 102 -30 132 -30 251 0 152 15 212 78 307 69 104 201
165 347 159 62 -2 89 -9 140 -34z"/>
<path d="M9143 5263 c-145 -3 -153 -5 -153 -23 0 -17 7 -20 51 -20 72 0 114
-23 133 -71 23 -57 45 -1083 24 -1143 -18 -54 -55 -79 -127 -84 -53 -4 -58 -6
-53 -25 5 -19 10 -20 176 -14 94 4 226 7 294 7 115 0 122 1 122 20 0 17 -7 20
-50 20 -73 0 -117 22 -137 67 -14 31 -18 83 -21 286 l-4 247 74 0 73 0 235
-315 235 -314 141 -1 c167 0 234 7 234 26 0 8 -12 16 -27 19 -121 24 -177 54
-246 129 -43 46 -355 459 -363 479 -3 9 10 18 38 26 124 37 221 119 258 217
30 81 25 196 -13 270 -33 66 -113 137 -182 163 -105 39 -199 44 -712 34z m515
-88 c70 -21 143 -92 167 -164 21 -65 17 -179 -8 -231 -54 -112 -188 -180 -354
-180 l-72 0 -3 283 c-2 155 -2 283 -2 285 1 1 21 6 45 11 71 14 172 12 227 -4z"/>
<path d="M1783 15113 c-692 -969 -1206 -2076 -1492 -3218 -217 -866 -316
-1790 -283 -2653 13 -350 30 -564 67 -872 177 -1447 690 -2839 1500 -4070 332
-504 695 -953 1173 -1450 l120 -125 26 25 c15 13 25 30 24 37 -2 6 -66 76
-143 155 -946 965 -1677 2133 -2138 3413 -548 1523 -693 3181 -421 4794 236
1397 795 2740 1622 3899 l95 134 -29 29 -30 29 -91 -127z"/>
<path d="M17210 15203 c-11 -15 -19 -32 -16 -39 3 -7 35 -54 72 -106 37 -51
126 -181 197 -288 725 -1096 1212 -2328 1431 -3622 381 -2246 -55 -4551 -1226
-6485 -161 -267 -435 -669 -583 -858 -310 -394 -476 -584 -747 -860 -81 -83
-148 -155 -148 -161 0 -6 12 -21 26 -35 l26 -24 135 140 c828 858 1440 1757
1908 2805 653 1460 925 3079 789 4695 -127 1518 -610 2963 -1425 4268 -134
214 -397 596 -411 597 -4 0 -16 -12 -28 -27z"/>
<path d="M1954 14993 c-92 -126 -335 -496 -431 -658 -402 -674 -721 -1400
-937 -2133 -368 -1249 -472 -2540 -311 -3843 190 -1531 772 -3010 1680 -4274
263 -366 527 -682 868 -1038 153 -160 172 -177 185 -163 14 14 1 30 -129 163
-939 961 -1667 2135 -2114 3408 -870 2478 -647 5244 608 7535 170 311 417 704
600 957 41 57 64 98 61 108 -3 8 -10 15 -14 15 -5 0 -34 -35 -66 -77z"/>
<path d="M17081 15046 c-9 -11 1 -32 52 -102 524 -729 973 -1610 1253 -2461
321 -975 474 -1923 474 -2943 0 -1226 -227 -2390 -685 -3515 -70 -173 -85
-208 -171 -396 -73 -160 -261 -525 -359 -694 -403 -702 -860 -1309 -1413
-1878 -127 -131 -143 -151 -130 -164 13 -12 35 7 183 159 1419 1466 2325 3380
2555 5403 70 619 79 1313 25 1925 -136 1526 -646 2993 -1483 4270 -122 187
-268 396 -282 405 -4 2 -13 -1 -19 -9z"/>
<path d="M16599 14469 c-21 -30 -21 -33 -6 -59 l17 -28 -93 -61 c-74 -49 -109
-81 -179 -165 -49 -58 -88 -108 -88 -112 0 -4 42 -72 93 -153 1033 -1619 1450
-3520 1192 -5437 -166 -1233 -638 -2445 -1350 -3474 -108 -156 -289 -398 -374
-500 -139 -167 -280 -328 -367 -420 -141 -149 -144 -152 -144 -160 0 -4 10
-19 21 -34 20 -25 22 -26 40 -11 17 16 25 10 146 -108 l128 -126 -32 -33 -32
-33 24 -30 25 -30 157 160 c577 587 1112 1349 1503 2140 479 970 755 1968 857
3090 25 285 26 1154 0 1425 -131 1383 -516 2578 -1199 3714 -102 170 -292 461
-307 470 -5 4 -19 -8 -32 -25z m404 -714 c26 -47 47 -88 47 -92 0 -5 -80 -51
-178 -104 l-177 -97 -47 82 c-26 44 -46 85 -45 90 3 8 336 206 347 206 3 0 26
-39 53 -85z m373 -752 c19 -43 36 -86 37 -97 2 -15 -31 -32 -173 -92 -96 -41
-179 -74 -185 -74 -12 0 -89 169 -81 177 7 8 349 163 359 163 4 0 23 -35 43
-77z m304 -809 c18 -52 30 -98 27 -101 -8 -8 -371 -121 -377 -117 -8 4 -64
183 -59 187 7 6 353 125 366 126 6 1 26 -42 43 -95z m214 -796 c9 -40 18 -86
22 -103 l5 -30 -188 -38 c-103 -20 -193 -37 -199 -37 -9 0 -51 187 -43 194 6
4 352 84 370 85 13 1 21 -16 33 -71z m129 -782 c3 -7 8 -54 12 -103 l7 -90
-173 -17 c-96 -9 -184 -19 -195 -21 -25 -5 -28 7 -40 130 l-6 71 163 21 c205
26 226 26 232 9z m57 -936 l0 -110 -195 0 -195 0 0 105 0 105 173 3 c94 1 182
4 195 5 22 2 22 0 22 -108z m-185 -751 c88 -6 161 -12 162 -13 3 -3 -18 -200
-22 -204 -2 -3 -90 4 -195 14 l-191 18 6 65 c13 142 13 142 48 137 18 -3 104
-10 192 -17z m-138 -820 c98 -17 181 -34 185 -38 6 -5 -27 -190 -36 -199 -4
-3 -368 67 -374 73 -1 1 4 35 13 76 21 106 25 119 30 119 3 0 85 -14 182 -31z
m-174 -813 c87 -24 161 -46 164 -50 6 -6 -35 -167 -49 -189 -4 -7 -63 7 -180
42 -95 30 -176 55 -179 57 -3 2 5 41 18 86 32 113 31 110 51 104 9 -3 88 -26
175 -50z m-268 -787 c88 -34 161 -63 163 -64 5 -4 -69 -185 -78 -190 -8 -5
-317 121 -334 136 -5 4 3 38 19 76 15 37 31 79 36 92 5 12 15 21 22 18 6 -3
84 -33 172 -68z m-357 -751 c86 -44 159 -83 161 -85 6 -5 -56 -133 -79 -163
l-17 -23 -161 88 -161 88 47 89 c26 48 48 88 50 88 1 0 73 -37 160 -82z m-408
-724 l149 -96 -56 -84 c-31 -46 -60 -84 -65 -84 -6 0 -257 166 -297 196 -6 6
101 164 111 164 5 0 76 -43 158 -96z m-432 -717 c39 -32 72 -62 72 -67 0 -4
-28 -42 -62 -84 l-61 -76 -46 37 c-25 21 -87 73 -138 116 -81 69 -91 82 -80
97 7 9 34 44 62 78 l49 61 66 -52 c36 -28 98 -78 138 -110z"/>
<path d="M2388 14327 c-1161 -1768 -1629 -3866 -1328 -5967 257 -1794 1082
-3465 2355 -4768 l110 -112 160 186 c88 103 160 190 160 195 0 4 -50 58 -110
121 -1096 1128 -1857 2633 -2124 4198 -177 1035 -153 2092 70 3107 206 939
588 1851 1111 2655 39 60 68 114 65 120 -7 17 -345 422 -355 425 -4 2 -55 -70
-114 -160z m49 -433 c87 -53 159 -98 161 -99 6 -5 -100 -175 -106 -171 -253
144 -313 179 -317 187 -6 8 91 179 100 179 3 0 75 -43 162 -96z m-392 -733
c91 -44 165 -82 165 -84 0 -11 -81 -177 -86 -177 -4 0 -82 34 -175 76 l-168
76 26 57 c14 31 33 73 42 93 9 21 19 38 23 38 4 0 82 -36 173 -79z m-334 -761
c90 -33 169 -63 176 -65 9 -3 3 -31 -21 -97 -19 -51 -38 -93 -42 -93 -16 0
-329 107 -338 115 -6 6 51 200 60 200 0 0 75 -27 165 -60z m-223 -802 c92 -22
168 -42 170 -43 2 -2 -39 -186 -44 -193 -2 -4 -354 75 -359 80 -3 3 30 159 40
186 6 17 6 17 193 -30z m-154 -813 c87 -13 160 -26 162 -28 3 -3 -17 -189 -21
-195 -3 -3 -358 39 -363 43 -3 3 17 174 23 193 6 16 14 16 199 -13z m44 -831
l42 -5 0 -101 0 -101 -182 7 c-101 4 -184 9 -187 11 -2 2 0 49 4 105 l7 101
137 -6 c75 -3 155 -8 179 -11z m46 -846 c8 -51 13 -168 6 -168 -3 0 -81 -7
-175 -14 -93 -8 -172 -13 -174 -10 -5 5 -18 198 -14 204 4 4 172 15 295 18
l57 2 5 -32z m94 -860 c7 -46 12 -90 12 -99 0 -13 -32 -21 -157 -43 -87 -15
-165 -28 -173 -29 -10 -2 -18 23 -31 98 -9 55 -15 102 -14 104 5 5 284 48 321
50 l31 1 11 -82z m173 -810 c13 -48 20 -90 17 -93 -9 -9 -321 -95 -328 -90 -8
5 -56 193 -50 198 13 9 326 84 332 78 3 -3 17 -45 29 -93z m249 -769 c18 -49
30 -92 29 -94 -5 -4 -307 -125 -313 -125 -6 0 -79 190 -75 194 7 6 304 115
315 115 6 1 26 -40 44 -90z m326 -744 l42 -84 -22 -15 c-12 -7 -81 -44 -154
-80 l-131 -66 -40 83 c-22 45 -42 87 -43 94 -3 12 263 151 292 152 9 1 31 -31
56 -84z m398 -706 c27 -45 45 -84 40 -89 -5 -4 -69 -47 -142 -94 l-133 -86
-55 86 c-31 48 -52 90 -47 94 16 16 268 170 278 170 6 0 32 -37 59 -81z m464
-659 c28 -38 52 -73 52 -79 0 -14 -249 -213 -259 -207 -16 11 -124 156 -119
161 23 24 255 195 263 194 6 0 34 -31 63 -69z m528 -616 c32 -37 60 -70 62
-73 1 -4 -50 -58 -113 -121 l-116 -114 -75 75 -74 75 120 112 c66 62 124 112
129 112 4 0 35 -30 67 -66z"/>
<path d="M14540 3229 c-71 -61 -300 -229 -465 -341 -313 -213 -566 -361 -895
-527 -950 -479 -1905 -746 -3010 -842 -199 -17 -830 -23 -1056 -10 -1629 95
-3115 638 -4407 1608 l-138 104 -98 -88 c-237 -214 -264 -238 -272 -241 -18
-7 319 -261 576 -434 1145 -768 2446 -1248 3805 -1402 569 -65 1219 -72 1775
-20 1671 156 3240 782 4543 1814 l54 42 -28 29 c-26 28 -29 28 -52 13 -29 -19
-16 -31 -147 134 -54 67 -95 126 -91 129 6 6 -42 63 -53 63 -3 -1 -22 -14 -41
-31z m-9651 -345 l80 -56 -92 -134 c-50 -74 -96 -134 -102 -134 -5 0 -45 25
-88 56 -50 35 -75 59 -70 67 16 27 185 257 188 257 3 0 40 -25 84 -56z m9345
-196 c47 -70 89 -133 92 -141 3 -10 -21 -31 -76 -66 -44 -28 -84 -51 -88 -51
-5 0 -146 210 -185 276 -5 9 18 29 75 67 46 30 86 52 89 48 3 -3 45 -63 93
-133z m-8661 -234 c45 -26 83 -47 84 -48 7 -5 -150 -286 -159 -286 -18 0 -179
91 -176 99 8 21 161 281 165 281 2 0 41 -21 86 -46z m7958 -204 c43 -79 76
-147 73 -152 -7 -10 -159 -88 -173 -88 -10 0 -166 299 -159 305 12 11 165 83
172 82 4 -2 43 -68 87 -147z m-7231 -157 c47 -20 87 -38 89 -40 8 -5 -123
-303 -134 -302 -16 1 -177 73 -179 81 -2 9 128 298 134 298 3 0 43 -17 90 -37z
m6450 -120 c18 -43 47 -114 66 -157 19 -44 33 -80 31 -81 -12 -9 -188 -77
-191 -74 -8 8 -125 313 -122 316 7 7 161 71 173 72 6 1 26 -34 43 -76z m-5683
-170 c52 -17 83 -32 83 -41 0 -22 -90 -302 -98 -302 -13 0 -177 52 -184 59
-11 10 91 311 105 311 6 0 48 -12 94 -27z m4937 -189 c26 -86 44 -160 39 -164
-8 -9 -185 -62 -189 -57 -6 6 -92 322 -89 325 6 6 159 51 176 51 12 1 28 -38
63 -155z m-4064 -48 c0 -18 -60 -310 -65 -314 -3 -4 -196 36 -201 41 -2 2 63
293 70 313 5 14 196 -25 196 -40z m3265 -168 c16 -82 26 -150 24 -153 -8 -8
-169 -36 -187 -33 -12 2 -22 39 -44 162 -15 88 -26 161 -24 163 2 2 46 12 97
21 84 16 95 16 100 2 3 -8 18 -81 34 -162z m-2542 67 l77 -7 0 -37 c-1 -45
-26 -291 -31 -296 -8 -8 -204 21 -203 30 1 6 10 81 20 168 17 150 19 158 38
153 12 -2 56 -8 99 -11z m1713 -111 c6 -54 14 -129 18 -166 l6 -67 -57 -6
c-32 -3 -79 -8 -104 -10 l-46 -5 -6 47 c-4 27 -9 103 -13 170 l-7 121 69 7
c38 3 78 7 89 9 37 6 40 0 51 -100z m-818 -106 l2 -168 -105 0 -105 0 0 163
c0 90 3 167 7 171 4 4 50 5 103 4 l95 -3 3 -167z"/>
<path d="M3601 2357 c-6 -6 -11 -14 -11 -18 0 -3 62 -56 138 -116 1423 -1138
3170 -1838 4987 -1997 600 -53 1271 -46 1875 19 1680 182 3312 841 4665 1883
181 140 255 201 255 214 0 29 -39 10 -136 -68 -1955 -1573 -4472 -2284 -6989
-1973 -1684 208 -3332 906 -4651 1970 -90 72 -124 95 -133 86z"/>
<path d="M3466 2237 l-29 -23 164 -130 c1095 -870 2336 -1481 3671 -1808 2059
-504 4249 -309 6167 548 751 336 1429 748 2071 1259 69 55 129 104 134 108 6
5 -1 21 -19 38 l-28 30 -51 -43 c-171 -144 -492 -380 -751 -553 -2289 -1526
-5137 -1974 -7805 -1229 -1209 338 -2385 943 -3357 1727 -67 55 -126 99 -130
99 -4 0 -21 -10 -37 -23z"/>
</g>
</svg>
